<svg width="487" height="15" viewBox="0 0 487 15" fill="none" xmlns="http://www.w3.org/2000/svg">
<path d="M486.791 7.91157L478.219 14.838C477.935 15.0594 477.483 15.0531 477.209 14.8238C476.942 14.6001 476.942 14.2455 477.209 14.0218L485.276 7.50349L477.209 0.985162C476.93 0.759783 476.93 0.394387 477.209 0.169008C477.488 -0.0563364 477.94 -0.0563364 478.219 0.169008L486.791 7.09542C487.07 7.32083 487.07 7.68619 486.791 7.91157Z" fill="white"/>
<path d="M0.209154 7.91157L8.78083 14.838C9.0646 15.0594 9.51679 15.0531 9.79085 14.8238C10.0582 14.6001 10.0582 14.2455 9.79085 14.0218L1.72418 7.50349L9.79085 0.985162C10.0697 0.759783 10.0697 0.394387 9.79085 0.169008C9.51189 -0.0563364 9.05974 -0.0563364 8.78083 0.169008L0.209154 7.09542C-0.0697184 7.32083 -0.0697184 7.68619 0.209154 7.91157Z" fill="white"/>
</svg>
