<svg width="20" height="20" viewBox="0 0 20 20" fill="none" xmlns="http://www.w3.org/2000/svg">
<g clip-path="url(#clip0)">
<path d="M10 6.10352e-05C4.4861 6.10352e-05 0 4.48616 0 10.0001C0 15.514 4.4861 20.0001 10 20.0001C15.5139 20.0001 20 15.514 20 10.0001C20 4.48616 15.5139 6.10352e-05 10 6.10352e-05ZM10 18.7501C5.17517 18.7501 1.25001 14.8249 1.25001 10.0001C1.25001 5.17523 5.17517 1.25007 10 1.25007C14.8248 1.25007 18.75 5.17523 18.75 10.0001C18.75 14.8249 14.8248 18.7501 10 18.7501Z" fill="#9EA0A5"/>
<path d="M10.625 3.75006H9.375V10.2588L13.3081 14.1919L14.1919 13.3081L10.625 9.74125V3.75006Z" fill="#9EA0A5"/>
</g>
<defs>
<clipPath id="clip0">
<rect width="20" height="20" fill="white"/>
</clipPath>
</defs>
</svg>
