<svg width="25" height="27" viewBox="0 0 25 27" fill="none" xmlns="http://www.w3.org/2000/svg">
<path d="M24.2188 22.7817H13.2812C12.85 22.7817 12.5 22.4037 12.5 21.938C12.5 21.4722 12.5 5.52874 12.5 5.06299C12.5 4.59724 12.85 4.21924 13.2812 4.21924H24.2188C24.65 4.21924 25 4.59724 25 5.06299V21.938C25 22.4037 24.65 22.7817 24.2188 22.7817Z" fill="#ECEFF1"/>
<path d="M16.4062 9.28174H13.2812C12.85 9.28174 12.5 8.90374 12.5 8.43799C12.5 7.97224 12.85 7.59424 13.2812 7.59424H16.4062C16.8375 7.59424 17.1875 7.97224 17.1875 8.43799C17.1875 8.90374 16.8375 9.28174 16.4062 9.28174Z" fill="#979797"/>
<path d="M16.4062 12.6567H13.2812C12.85 12.6567 12.5 12.2787 12.5 11.813C12.5 11.3472 12.85 10.9692 13.2812 10.9692H16.4062C16.8375 10.9692 17.1875 11.3472 17.1875 11.813C17.1875 12.2787 16.8375 12.6567 16.4062 12.6567Z" fill="#979797"/>
<path d="M16.4062 16.0317H13.2812C12.85 16.0317 12.5 15.6537 12.5 15.188C12.5 14.7222 12.85 14.3442 13.2812 14.3442H16.4062C16.8375 14.3442 17.1875 14.7222 17.1875 15.188C17.1875 15.6537 16.8375 16.0317 16.4062 16.0317Z" fill="#979797"/>
<path d="M16.4062 19.4067H13.2812C12.85 19.4067 12.5 19.0287 12.5 18.563C12.5 18.0972 12.85 17.7192 13.2812 17.7192H16.4062C16.8375 17.7192 17.1875 18.0972 17.1875 18.563C17.1875 19.0287 16.8375 19.4067 16.4062 19.4067Z" fill="#979797"/>
<path d="M21.0938 9.28174H19.5312C19.1 9.28174 18.75 8.90374 18.75 8.43799C18.75 7.97224 19.1 7.59424 19.5312 7.59424H21.0938C21.525 7.59424 21.875 7.97224 21.875 8.43799C21.875 8.90374 21.525 9.28174 21.0938 9.28174Z" fill="#979797"/>
<path d="M21.0938 12.6567H19.5312C19.1 12.6567 18.75 12.2787 18.75 11.813C18.75 11.3472 19.1 10.9692 19.5312 10.9692H21.0938C21.525 10.9692 21.875 11.3472 21.875 11.813C21.875 12.2787 21.525 12.6567 21.0938 12.6567Z" fill="#979797"/>
<path d="M21.0938 16.0317H19.5312C19.1 16.0317 18.75 15.6537 18.75 15.188C18.75 14.7222 19.1 14.3442 19.5312 14.3442H21.0938C21.525 14.3442 21.875 14.7222 21.875 15.188C21.875 15.6537 21.525 16.0317 21.0938 16.0317Z" fill="#979797"/>
<path d="M21.0938 19.4067H19.5312C19.1 19.4067 18.75 19.0287 18.75 18.563C18.75 18.0972 19.1 17.7192 19.5312 17.7192H21.0938C21.525 17.7192 21.875 18.0972 21.875 18.563C21.875 19.0287 21.525 19.4067 21.0938 19.4067Z" fill="#979797"/>
<path d="M13.7797 1.03822C13.6016 0.877905 13.3625 0.808717 13.1375 0.859342L0.6375 3.39059C0.267187 3.46484 0 3.81247 0 4.21915V22.7817C0 23.1867 0.267187 23.536 0.6375 23.6102L13.1375 26.1415C13.1844 26.1516 13.2328 26.1567 13.2812 26.1567C13.4625 26.1567 13.6391 26.0892 13.7797 25.9626C13.9594 25.8023 14.0625 25.5627 14.0625 25.3129V1.6879C14.0625 1.43647 13.9594 1.19853 13.7797 1.03822Z" fill="#979797"/>
<path d="M10.7436 16.3205L8.27326 13.2711L10.7717 9.80165C11.0373 9.43377 10.9748 8.9039 10.6358 8.61702C10.2967 8.33015 9.80608 8.39764 9.53889 8.76383L7.22483 11.9768L5.27483 9.57046C4.98889 9.21608 4.49514 9.18402 4.17326 9.49115C3.84826 9.79827 3.81545 10.3315 4.09983 10.6808L6.24826 13.3336L4.07014 16.3576C3.80451 16.7255 3.86701 17.2553 4.20608 17.5422C4.34983 17.662 4.52014 17.7194 4.68733 17.7194C4.92014 17.7194 5.14983 17.608 5.30451 17.3937L7.2967 14.6262L9.56858 17.4291C9.72326 17.6215 9.93889 17.7194 10.1561 17.7194C10.3389 17.7194 10.5217 17.6502 10.6701 17.5101C10.9951 17.203 11.028 16.6698 10.7436 16.3205Z" fill="#FAFAFA"/>
</svg>
