<svg width="16" height="16" viewBox="0 0 16 16" fill="none" xmlns="http://www.w3.org/2000/svg">
<path d="M15.0098 15.0098C14.4292 15.5905 13.4614 15.5905 12.8808 15.0098L7.94531 10.0744L3.00983 15.0098C2.4292 15.5905 1.46141 15.5905 0.880781 15.0098C0.300156 14.4292 0.300156 13.4614 0.880781 12.8808L5.81626 7.94531L0.880781 3.00983C0.300156 2.4292 0.300156 1.46141 0.880781 0.880781C1.46141 0.300156 2.4292 0.300156 3.00983 0.880781L7.94531 5.81626L12.8808 0.880781C13.4614 0.300156 14.4292 0.300156 15.0098 0.880781C15.5905 1.46141 15.5905 2.4292 15.0098 3.00983L10.0744 7.94531L15.0098 12.8808C15.5905 13.4614 15.5905 14.4292 15.0098 15.0098Z" fill="white"/>
</svg>
