<svg width="22" height="32" viewBox="0 0 22 32" fill="none" xmlns="http://www.w3.org/2000/svg">
<path d="M21.24 5.08C20.8133 4.89333 20.3867 4.8 19.96 4.8C19.56 4.8 19.16 5.05333 18.76 5.56C18.3867 6.06667 18.1333 6.8 18 7.76L15.92 22.6C15.5467 25.2933 14.6133 27.4133 13.12 28.96C11.6533 30.5067 9.81333 31.28 7.6 31.28C5.38667 31.28 3.66667 30.6667 2.44 29.44C1.24 28.1867 0.64 26.7067 0.64 25C0.64 23.2667 1.22667 21.8 2.4 20.6C3.6 19.4 5.10667 18.8 6.92 18.8C8.04 18.8 8.92 18.88 9.56 19.04L9.36 21.48C8.90667 21.3733 8.2 21.32 7.24 21.32C6.30667 21.32 5.46667 21.64 4.72 22.28C4 22.92 3.64 23.72 3.64 24.68C3.64 25.64 3.90667 26.3867 4.44 26.92C4.97333 27.4267 5.61333 27.68 6.36 27.68C8.6 27.68 9.90667 26.0267 10.28 22.72C11 16.1067 11.52 11.64 11.84 9.32C10.24 9.88 8.82667 10.16 7.6 10.16C5.65333 10.16 4.16 9.70667 3.12 8.8C2.10667 7.89333 1.6 6.70666 1.6 5.24C1.6 3.77333 2.12 2.62666 3.16 1.8C4.22667 0.946666 5.56 0.519999 7.16 0.519999C8.14667 0.519999 9.56 0.826666 11.4 1.44C13.2667 2.05333 14.7067 2.36 15.72 2.36C17.5333 2.36 19.0533 1.89333 20.28 0.959998C20.9467 1.89333 21.28 3 21.28 4.28C21.28 4.54666 21.2667 4.81333 21.24 5.08ZM5.56 6.32C5.56 6.72 5.77333 7.06666 6.2 7.36C6.65333 7.65333 7.32 7.8 8.2 7.8C9.10667 7.8 10.28 7.4 11.72 6.6C10.68 6.36 9.61333 6.09333 8.52 5.8C7.42667 5.48 6.77333 5.32 6.56 5.32C5.89333 5.32 5.56 5.65333 5.56 6.32Z" fill="#FFEB3B"/>
</svg>
