<svg width="19" height="13" viewBox="0 0 19 13" fill="none" xmlns="http://www.w3.org/2000/svg">
<path d="M9.5 3.9C8.81285 3.9 8.15384 4.17393 7.66795 4.66152C7.18206 5.14912 6.90909 5.81044 6.90909 6.5C6.90909 7.18956 7.18206 7.85088 7.66795 8.33848C8.15384 8.82607 8.81285 9.1 9.5 9.1C10.1872 9.1 10.8462 8.82607 11.3321 8.33848C11.8179 7.85088 12.0909 7.18956 12.0909 6.5C12.0909 5.81044 11.8179 5.14912 11.3321 4.66152C10.8462 4.17393 10.1872 3.9 9.5 3.9ZM9.5 10.8333C8.35475 10.8333 7.2564 10.3768 6.44658 9.56413C5.63677 8.75147 5.18182 7.64927 5.18182 6.5C5.18182 5.35073 5.63677 4.24853 6.44658 3.43587C7.2564 2.62321 8.35475 2.16667 9.5 2.16667C10.6453 2.16667 11.7436 2.62321 12.5534 3.43587C13.3632 4.24853 13.8182 5.35073 13.8182 6.5C13.8182 7.64927 13.3632 8.75147 12.5534 9.56413C11.7436 10.3768 10.6453 10.8333 9.5 10.8333ZM9.5 0C5.18182 0 1.49409 2.69533 0 6.5C1.49409 10.3047 5.18182 13 9.5 13C13.8182 13 17.5059 10.3047 19 6.5C17.5059 2.69533 13.8182 0 9.5 0Z" fill="white"/>
</svg>
