<svg width="18" height="16" viewBox="0 0 18 16" fill="none" xmlns="http://www.w3.org/2000/svg">
<path d="M7.71575 8.93399H0.70525C0.315 8.93399 0 8.61899 0 8.22874C0 7.83849 0.315 7.52349 0.70525 7.52349H8.68175C8.46475 7.73874 8.288 7.91724 8.07975 8.19199C7.85925 8.48074 7.71575 8.93399 7.71575 8.93399ZM14.3413 5.17324H0.70525C0.315 5.17324 0 4.85649 0 4.46799C0 4.07774 0.315 3.76274 0.70525 3.76274H14.3413C14.7315 3.76274 15.0465 4.07774 15.0465 4.46799C15.0465 4.85649 14.7315 5.17324 14.3413 5.17324ZM14.3413 1.41074H0.70525C0.315 1.41074 0 1.09399 0 0.705494C0 0.315244 0.315 0.000244141 0.70525 0.000244141H14.3413C14.7315 0.000244141 15.0465 0.315244 15.0465 0.705494C15.0465 1.09399 14.7315 1.41074 14.3413 1.41074ZM0.70525 11.286H7.2555C7.27125 11.9142 7.30975 12.2187 7.53025 12.6965H0.70525C0.315 12.6965 0 12.3797 0 11.9912C0 11.601 0.315 11.286 0.70525 11.286Z" fill="white"/>
<path d="M7.71575 8.93399H0.70525C0.315 8.93399 0 8.61899 0 8.22874C0 7.83849 0.315 7.52349 0.70525 7.52349H8.68175C8.46475 7.73874 8.288 7.91724 8.07975 8.19199C7.85925 8.48074 7.71575 8.93399 7.71575 8.93399ZM14.3413 5.17324H0.70525C0.315 5.17324 0 4.85649 0 4.46799C0 4.07774 0.315 3.76274 0.70525 3.76274H14.3413C14.7315 3.76274 15.0465 4.07774 15.0465 4.46799C15.0465 4.85649 14.7315 5.17324 14.3413 5.17324ZM14.3413 1.41074H0.70525C0.315 1.41074 0 1.09399 0 0.705494C0 0.315244 0.315 0.000244141 0.70525 0.000244141H14.3413C14.7315 0.000244141 15.0465 0.315244 15.0465 0.705494C15.0465 1.09399 14.7315 1.41074 14.3413 1.41074ZM0.70525 11.286H7.2555C7.27125 11.9142 7.30975 12.2187 7.53025 12.6965H0.70525C0.315 12.6965 0 12.3797 0 11.9912C0 11.601 0.315 11.286 0.70525 11.286Z" fill="white"/>
<path d="M12.4827 15.6836C9.90493 15.6836 7.81543 13.5941 7.81543 11.0164C7.81543 8.43862 9.90493 6.34912 12.4827 6.34912C15.0604 6.34912 17.1499 8.43862 17.1499 11.0164C17.1499 13.5941 15.0587 15.6836 12.4827 15.6836ZM14.8522 8.20412C14.5547 8.20412 14.2852 8.32487 14.0892 8.51912L11.9787 10.6314L11.3032 9.95762C11.1089 9.76337 10.8394 9.64262 10.5419 9.64262C9.94693 9.64262 9.46393 10.1239 9.46393 10.7206C9.46393 11.0181 9.58468 11.2876 9.77893 11.4819L11.2174 12.9169C11.4117 13.1111 11.6812 13.2319 11.9787 13.2319C12.2762 13.2319 12.5457 13.1111 12.7399 12.9169L15.6117 10.0434C15.8059 9.84912 15.9284 9.57962 15.9284 9.28212C15.9284 8.68712 15.4454 8.20412 14.8522 8.20412Z" fill="white"/>
<path d="M12.4827 15.6836C9.90493 15.6836 7.81543 13.5941 7.81543 11.0164C7.81543 8.43862 9.90493 6.34912 12.4827 6.34912C15.0604 6.34912 17.1499 8.43862 17.1499 11.0164C17.1499 13.5941 15.0587 15.6836 12.4827 15.6836ZM14.8522 8.20412C14.5547 8.20412 14.2852 8.32487 14.0892 8.51912L11.9787 10.6314L11.3032 9.95762C11.1089 9.76337 10.8394 9.64262 10.5419 9.64262C9.94693 9.64262 9.46393 10.1239 9.46393 10.7206C9.46393 11.0181 9.58468 11.2876 9.77893 11.4819L11.2174 12.9169C11.4117 13.1111 11.6812 13.2319 11.9787 13.2319C12.2762 13.2319 12.5457 13.1111 12.7399 12.9169L15.6117 10.0434C15.8059 9.84912 15.9284 9.57962 15.9284 9.28212C15.9284 8.68712 15.4454 8.20412 14.8522 8.20412Z" fill="white"/>
</svg>
