<svg width="19" height="18" viewBox="0 0 19 18" fill="none" xmlns="http://www.w3.org/2000/svg">
<path d="M3.30615 13.0397C4.08337 13.3802 4.95505 13.3802 5.73227 13.0397V12.1807C4.96313 12.5388 4.09415 12.5668 3.30615 12.2588V13.0397Z" fill="white"/>
<path d="M1.18834 7.36365C1.1384 7.38716 1.09431 7.42282 1.05961 7.46777C1.02491 7.51273 1.00056 7.56573 0.988513 7.62252C0.970507 7.70116 0.967803 7.7829 0.980569 7.86269C0.993336 7.94249 1.0213 8.01865 1.06274 8.08646C1.10418 8.15428 1.15821 8.21231 1.22149 8.25698C1.28478 8.30165 1.35598 8.332 1.43069 8.34617C1.4827 8.35589 1.52983 8.38486 1.56378 8.42798C1.59774 8.47111 1.61636 8.52563 1.61635 8.58195V8.99204C1.61906 9.78577 1.91655 10.546 2.44367 11.1062C2.97078 11.6665 3.68455 11.981 4.42865 11.981C5.17274 11.981 5.88651 11.6665 6.41362 11.1062C6.94074 10.546 7.23823 9.78577 7.24094 8.99204V8.58195C7.24093 8.52563 7.25955 8.47111 7.29351 8.42798C7.32746 8.38486 7.37459 8.35589 7.4266 8.34617C7.50132 8.33202 7.57253 8.30167 7.63582 8.25701C7.69911 8.21234 7.75315 8.15431 7.79459 8.08649C7.83602 8.01867 7.86398 7.9425 7.87674 7.8627C7.88949 7.7829 7.88677 7.70116 7.86874 7.62252C7.85339 7.55187 7.81936 7.48739 7.77069 7.43674C7.72202 7.38609 7.66076 7.3514 7.59416 7.33677C7.57341 7.34882 7.55099 7.35729 7.52775 7.36186C7.41684 7.38264 4.82354 7.84693 2.99108 6.18408C2.64661 6.20969 2.36313 6.21288 2.18001 6.21105L2.11058 7.42703C2.11058 7.42855 2.11058 7.43002 2.11028 7.43154C2.10655 7.48181 2.09124 7.53032 2.06571 7.57276C2.04017 7.61519 2.0052 7.65024 1.9639 7.67478C1.9226 7.69932 1.87626 7.7126 1.82899 7.71343C1.78172 7.71425 1.735 7.70261 1.69297 7.67952L1.3267 7.47885C1.27426 7.44998 1.22733 7.41091 1.18834 7.36365Z" fill="white"/>
<path d="M7.7685 14.334L6.5515 13.7799L6.54962 13.7791L5.90014 13.4834C5.01536 13.8703 4.02339 13.8703 3.1386 13.4834L1.27047 14.334C1.05783 14.4496 0.876049 14.6207 0.742027 14.8314C0.608006 15.0421 0.526094 15.2855 0.503906 15.539V17.5H8.53484V15.539C8.51268 15.2855 8.4308 15.0421 8.29682 14.8315C8.16284 14.6208 7.9811 14.4497 7.7685 14.334Z" fill="white"/>
<path d="M9.45776 0H15.7822V0.892894H9.45776V0Z" fill="white"/>
<path d="M1.5166 5.82718V7.03264C1.51749 7.03706 1.5193 7.04121 1.52189 7.04479C1.52448 7.04837 1.52778 7.05129 1.53156 7.05334L1.67795 7.13351L1.74526 5.95151C1.74894 5.88856 1.77573 5.82969 1.81983 5.78767C1.86393 5.74565 1.92178 5.72387 1.98084 5.72706C2.00836 5.72862 4.75973 5.86152 6.29977 4.6015C6.32308 4.58161 6.34988 4.56689 6.3786 4.55818C6.40731 4.54948 6.43736 4.54698 6.467 4.55082C6.49663 4.55467 6.52524 4.56478 6.55116 4.58057C6.57709 4.59636 6.59979 4.61751 6.61796 4.64278C6.63612 4.66805 6.64937 4.69693 6.65694 4.72773C6.66451 4.75854 6.66624 4.79064 6.66203 4.82216C6.65781 4.85369 6.64775 4.884 6.63242 4.91132C6.61709 4.93864 6.5968 4.96242 6.57274 4.98128C5.72616 5.67385 4.58469 5.98051 3.64828 6.11366C5.01116 7.07759 6.70833 6.98086 7.26422 6.91676V5.82718C7.26464 5.08463 7.01126 4.36739 6.55154 3.8098C6.52191 3.79659 6.49527 3.77676 6.47343 3.75165C6.45158 3.72653 6.43503 3.69672 6.42489 3.66421C6.02363 3.23418 5.51171 2.94092 4.95403 2.82157C4.39634 2.70223 3.818 2.7622 3.2923 2.99386C2.7666 3.22553 2.3172 3.61846 2.00108 4.12287C1.68496 4.62727 1.51635 5.22044 1.5166 5.82718Z" fill="white"/>
<path d="M17.4806 0.734375H16.2311V1.13198C16.2311 1.19545 16.2075 1.25633 16.1654 1.30121C16.1233 1.34609 16.0662 1.37131 16.0067 1.37131H9.2336C9.1741 1.37131 9.11703 1.34609 9.07496 1.30121C9.03288 1.25633 9.00924 1.19545 9.00924 1.13198V0.734375H7.38581C7.24701 0.734512 7.11393 0.793391 7.01578 0.898088C6.91763 1.00278 6.86243 1.14474 6.8623 1.29281V3.46068C7.41076 4.10981 7.71404 4.95285 7.71345 5.82672V6.87446C7.8572 6.91188 7.98849 6.99089 8.09284 7.10279C8.1972 7.21469 8.27058 7.35514 8.3049 7.50868C8.36293 7.76179 8.33251 8.02877 8.21932 8.25968C8.10613 8.49058 7.91794 8.66958 7.68997 8.76316V8.99203C7.69059 9.84532 7.39598 10.6688 6.8626 11.3047V13.4008L7.95139 13.8965C7.95554 13.8984 7.95961 13.9005 7.96361 13.9025C8.18684 14.0227 8.38516 14.1895 8.54681 14.393C8.70847 14.5965 8.83017 14.8326 8.90469 15.0872H17.4806C17.6194 15.0871 17.7525 15.0282 17.8506 14.9235C17.9488 14.8188 18.004 14.6768 18.0041 14.5288V1.29273C18.004 1.14468 17.9487 1.00274 17.8506 0.898059C17.7525 0.79338 17.6194 0.734512 17.4806 0.734375ZM13.6791 3.349H13.8113C13.8708 3.349 13.9278 3.37421 13.9699 3.41909C14.012 3.46398 14.0356 3.52485 14.0356 3.58832C14.0356 3.6518 14.012 3.71267 13.9699 3.75755C13.9278 3.80244 13.8708 3.82765 13.8113 3.82765H13.6791C13.6196 3.82765 13.5626 3.80244 13.5205 3.75755C13.4784 3.71267 13.4548 3.6518 13.4548 3.58832C13.4548 3.52485 13.4784 3.46398 13.5205 3.41909C13.5626 3.37421 13.6196 3.349 13.6791 3.349ZM13.6791 5.34316H15.2694C15.3289 5.34316 15.386 5.36837 15.4281 5.41326C15.4701 5.45814 15.4938 5.51901 15.4938 5.58249C15.4938 5.64596 15.4701 5.70683 15.4281 5.75172C15.386 5.7966 15.3289 5.82181 15.2694 5.82181H13.6791C13.6196 5.82181 13.5626 5.7966 13.5205 5.75172C13.4784 5.70683 13.4548 5.64596 13.4548 5.58249C13.4548 5.51901 13.4784 5.45814 13.5205 5.41326C13.5626 5.36837 13.6196 5.34316 13.6791 5.34316ZM13.2236 7.38108H13.7739C13.8334 7.38108 13.8904 7.40629 13.9325 7.45117C13.9746 7.49606 13.9982 7.55693 13.9982 7.6204C13.9982 7.68388 13.9746 7.74475 13.9325 7.78964C13.8904 7.83452 13.8334 7.85973 13.7739 7.85973H13.2236C13.1641 7.85973 13.1071 7.83452 13.065 7.78964C13.0229 7.74475 12.9993 7.68388 12.9993 7.6204C12.9993 7.55693 13.0229 7.49606 13.065 7.45117C13.1071 7.40629 13.1641 7.38108 13.2236 7.38108ZM7.97801 5.39605C7.97801 4.87537 8.12275 4.36638 8.39394 3.93345C8.66512 3.50052 9.05056 3.16309 9.50152 2.96383C9.95248 2.76458 10.4487 2.71244 10.9274 2.81402C11.4062 2.9156 11.8459 3.16634 12.1911 3.53451C12.5362 3.90269 12.7713 4.37178 12.8665 4.88245C12.9617 5.39313 12.9129 5.92246 12.7261 6.40351C12.5393 6.88455 12.223 7.29571 11.8171 7.58498C11.4112 7.87426 10.9341 8.02866 10.446 8.02866C9.79166 8.02787 9.16435 7.75025 8.70168 7.25671C8.23901 6.76317 7.97875 6.09402 7.97801 5.39605ZM10.3471 10.209C10.3471 10.2725 10.3234 10.3334 10.2814 10.3782C10.2393 10.4231 10.1822 10.4483 10.1227 10.4483H8.85066C8.79115 10.4483 8.73409 10.4231 8.69201 10.3782C8.64994 10.3334 8.6263 10.2725 8.6263 10.209C8.6263 10.1455 8.64994 10.0847 8.69201 10.0398C8.73409 9.9949 8.79115 9.96969 8.85066 9.96969H10.1227C10.1822 9.96969 10.2393 9.9949 10.2814 10.0398C10.3234 10.0847 10.3471 10.1455 10.3471 10.209ZM11.2896 12.8409H8.85066C8.79115 12.8409 8.73409 12.8157 8.69201 12.7708C8.64994 12.7259 8.6263 12.665 8.6263 12.6015C8.6263 12.5381 8.64994 12.4772 8.69201 12.4323C8.73409 12.3874 8.79115 12.3622 8.85066 12.3622H11.2896C11.3491 12.3622 11.4062 12.3874 11.4483 12.4323C11.4904 12.4772 11.514 12.5381 11.514 12.6015C11.514 12.665 11.4904 12.7259 11.4483 12.7708C11.4062 12.8157 11.3491 12.8409 11.2896 12.8409ZM11.2896 10.4483H11.0892C11.0297 10.4483 10.9726 10.4231 10.9305 10.3782C10.8885 10.3334 10.8648 10.2725 10.8648 10.209C10.8648 10.1455 10.8885 10.0847 10.9305 10.0398C10.9726 9.9949 11.0297 9.96969 11.0892 9.96969H11.2896C11.3491 9.96969 11.4062 9.9949 11.4483 10.0398C11.4904 10.0847 11.514 10.1455 11.514 10.209C11.514 10.2725 11.4904 10.3334 11.4483 10.3782C11.4062 10.4231 11.3491 10.4483 11.2896 10.4483ZM11.8521 10.209C11.8521 10.1455 11.8757 10.0847 11.9178 10.0398C11.9599 9.9949 12.0169 9.96969 12.0764 9.96969H15.0477C15.1072 9.96969 15.1642 9.9949 15.2063 10.0398C15.2484 10.0847 15.272 10.1455 15.272 10.209C15.272 10.2725 15.2484 10.3334 15.2063 10.3782C15.1642 10.4231 15.1072 10.4483 15.0477 10.4483H12.0764C12.0169 10.4483 11.9599 10.4231 11.9178 10.3782C11.8757 10.3334 11.8521 10.2725 11.8521 10.209ZM13.4987 12.8409H12.2792C12.2197 12.8409 12.1626 12.8157 12.1205 12.7708C12.0785 12.7259 12.0548 12.665 12.0548 12.6015C12.0548 12.5381 12.0785 12.4772 12.1205 12.4323C12.1626 12.3874 12.2197 12.3622 12.2792 12.3622H13.4988C13.5583 12.3622 13.6153 12.3874 13.6574 12.4323C13.6995 12.4772 13.7231 12.5381 13.7231 12.6015C13.7231 12.665 13.6995 12.7259 13.6574 12.7708C13.6153 12.8157 13.5583 12.8409 13.4988 12.8409H13.4987ZM14.2915 12.8409H14.1302C14.0706 12.8409 14.0136 12.8157 13.9715 12.7708C13.9294 12.7259 13.9058 12.665 13.9058 12.6015C13.9058 12.5381 13.9294 12.4772 13.9715 12.4323C14.0136 12.3874 14.0706 12.3622 14.1302 12.3622H14.2914C14.3509 12.3622 14.4079 12.3874 14.45 12.4323C14.4921 12.4772 14.5157 12.5381 14.5157 12.6015C14.5157 12.665 14.4921 12.7259 14.45 12.7708C14.4079 12.8157 14.3509 12.8409 14.2914 12.8409H14.2915ZM16.3806 12.8409H15.0967C15.0372 12.8409 14.9802 12.8157 14.9381 12.7708C14.896 12.7259 14.8724 12.665 14.8724 12.6015C14.8724 12.5381 14.896 12.4772 14.9381 12.4323C14.9802 12.3874 15.0372 12.3622 15.0967 12.3622H16.3806C16.4401 12.3622 16.4972 12.3874 16.5393 12.4323C16.5814 12.4772 16.605 12.5381 16.605 12.6015C16.605 12.665 16.5814 12.7259 16.5393 12.7708C16.4972 12.8157 16.4401 12.8409 16.3806 12.8409ZM16.3806 10.4483H15.8237C15.7642 10.4483 15.7071 10.4231 15.665 10.3782C15.6229 10.3334 15.5993 10.2725 15.5993 10.209C15.5993 10.1455 15.6229 10.0847 15.665 10.0398C15.7071 9.9949 15.7642 9.96969 15.8237 9.96969H16.3806C16.4401 9.96969 16.4972 9.9949 16.5393 10.0398C16.5814 10.0847 16.605 10.1455 16.605 10.209C16.605 10.2725 16.5814 10.3334 16.5393 10.3782C16.4972 10.4231 16.4401 10.4483 16.3806 10.4483ZM16.3806 7.85961H14.7403C14.6808 7.85961 14.6238 7.8344 14.5817 7.78952C14.5396 7.74463 14.516 7.68376 14.516 7.62029C14.516 7.55681 14.5396 7.49594 14.5817 7.45106C14.6238 7.40617 14.6808 7.38096 14.7403 7.38096H16.3806C16.4401 7.38096 16.4972 7.40617 16.5393 7.45106C16.5814 7.49594 16.605 7.55681 16.605 7.62029C16.605 7.68376 16.5814 7.74463 16.5393 7.78952C16.4972 7.8344 16.4401 7.85961 16.3806 7.85961ZM16.3806 5.82169H16.2358C16.1763 5.82169 16.1193 5.79648 16.0772 5.7516C16.0351 5.70671 16.0115 5.64584 16.0115 5.58237C16.0115 5.51889 16.0351 5.45802 16.0772 5.41314C16.1193 5.36825 16.1763 5.34304 16.2358 5.34304H16.3806C16.4401 5.34304 16.4972 5.36825 16.5393 5.41314C16.5814 5.45802 16.605 5.51889 16.605 5.58237C16.605 5.64584 16.5814 5.70671 16.5393 5.7516C16.4972 5.79648 16.4401 5.82169 16.3806 5.82169ZM16.3806 3.82753H14.7777C14.7182 3.82753 14.6611 3.80232 14.619 3.75743C14.577 3.71255 14.5533 3.65168 14.5533 3.5882C14.5533 3.52473 14.577 3.46386 14.619 3.41897C14.6611 3.37409 14.7182 3.34888 14.7777 3.34888H16.3806C16.4401 3.34888 16.4972 3.37409 16.5393 3.41897C16.5814 3.46386 16.605 3.52473 16.605 3.5882C16.605 3.65168 16.5814 3.71255 16.5393 3.75743C16.4972 3.80232 16.4401 3.82753 16.3806 3.82753Z" fill="white"/>
<path d="M10.4455 7.55009C10.8449 7.55009 11.2353 7.42377 11.5673 7.18709C11.8994 6.95041 12.1582 6.614 12.311 6.22042C12.4639 5.82684 12.5039 5.39375 12.4259 4.97592C12.348 4.5581 12.1557 4.1743 11.8733 3.87307C11.5909 3.57183 11.2311 3.36669 10.8394 3.28358C10.4477 3.20047 10.0417 3.24312 9.67278 3.40615C9.30381 3.56918 8.98845 3.84525 8.76657 4.19947C8.5447 4.55368 8.42627 4.97013 8.42627 5.39614C8.42687 5.96721 8.63981 6.5147 9.01836 6.9185C9.39691 7.32231 9.91016 7.54945 10.4455 7.55009ZM9.14755 5.41884C9.18962 5.37396 9.24669 5.34874 9.30619 5.34874C9.36569 5.34874 9.42276 5.37396 9.46483 5.41884L9.94578 5.93184L11.4261 4.35275C11.4683 4.30847 11.5252 4.28377 11.5844 4.28403C11.6436 4.28428 11.7003 4.30948 11.7421 4.35412C11.784 4.39877 11.8076 4.45924 11.8079 4.52238C11.8081 4.58551 11.7849 4.64619 11.7434 4.6912L10.1044 6.43957C10.0623 6.48445 10.0053 6.50966 9.94577 6.50966C9.88626 6.50966 9.8292 6.48445 9.78712 6.43957L9.1477 5.75729C9.10561 5.71242 9.08194 5.65157 9.08192 5.58809C9.08189 5.52462 9.1055 5.46374 9.14755 5.41884Z" fill="white"/>
</svg>
