<svg width="17" height="19" viewBox="0 0 17 19" fill="none" xmlns="http://www.w3.org/2000/svg">
<path d="M14.625 16.5002H2.375V6.87524H14.625V16.5002ZM14.625 2.50024H13.75V0.750244H12V2.50024H5V0.750244H3.25V2.50024H2.375C1.40375 2.50024 0.625 3.28774 0.625 4.25024V16.5002C0.625 16.9644 0.809374 17.4095 1.13756 17.7377C1.46575 18.0659 1.91087 18.2502 2.375 18.2502H14.625C15.0891 18.2502 15.5342 18.0659 15.8624 17.7377C16.1906 17.4095 16.375 16.9644 16.375 16.5002V4.25024C16.375 3.78612 16.1906 3.341 15.8624 3.01281C15.5342 2.68462 15.0891 2.50024 14.625 2.50024ZM12.4638 9.55274L11.5363 8.62524L7.26625 12.8952L5.41125 11.0402L4.48375 11.9677L7.26625 14.7502L12.4638 9.55274Z" fill="white"/>
</svg>
