<svg width="17" height="16" viewBox="0 0 17 16" fill="none" xmlns="http://www.w3.org/2000/svg">
<path d="M16.1125 8.80625L15.2375 9.68125L13.4437 7.8875L14.3187 7.0125C14.5025 6.82875 14.8088 6.82875 14.9925 7.0125L16.1125 8.1325C16.2963 8.31625 16.2963 8.6225 16.1125 8.80625ZM7.625 13.6975L12.9275 8.395L14.7213 10.1888L9.4275 15.5H7.625V13.6975ZM7.625 9.375C3.7575 9.375 0.625 10.9412 0.625 12.875V14.625H5.875V12.9713L9.375 9.47125C8.7975 9.40125 8.21125 9.375 7.625 9.375ZM7.625 0.625C6.69674 0.625 5.8065 0.993749 5.15013 1.65013C4.49375 2.3065 4.125 3.19674 4.125 4.125C4.125 5.05326 4.49375 5.9435 5.15013 6.59987C5.8065 7.25625 6.69674 7.625 7.625 7.625C8.55326 7.625 9.4435 7.25625 10.0999 6.59987C10.7563 5.9435 11.125 5.05326 11.125 4.125C11.125 3.19674 10.7563 2.3065 10.0999 1.65013C9.4435 0.993749 8.55326 0.625 7.625 0.625Z" fill="white"/>
</svg>
