<svg width="22" height="13" viewBox="0 0 22 13" fill="none" xmlns="http://www.w3.org/2000/svg">
<path d="M11 0.000244141C10.2044 0.000244141 9.44129 0.316315 8.87868 0.878924C8.31607 1.44153 8 2.20459 8 3.00024C8 3.79589 8.31607 4.55896 8.87868 5.12156C9.44129 5.68417 10.2044 6.00024 11 6.00024C11.7956 6.00024 12.5587 5.68417 13.1213 5.12156C13.6839 4.55896 14 3.79589 14 3.00024C14 2.20459 13.6839 1.44153 13.1213 0.878924C12.5587 0.316315 11.7956 0.000244141 11 0.000244141ZM5 2.17024C4.33696 2.17024 3.70107 2.43364 3.23223 2.90248C2.76339 3.37132 2.5 4.0072 2.5 4.67024C2.5 4.99855 2.56466 5.32364 2.6903 5.62695C2.81594 5.93027 3.00009 6.20586 3.23223 6.43801C3.46438 6.67016 3.73998 6.85431 4.04329 6.97994C4.34661 7.10558 4.6717 7.17024 5 7.17024C5.88 7.17024 6.65 6.71024 7.09 6.03024C6.42 5.18024 6 4.15024 6 3.00024C6 2.80024 6 2.60024 6.04 2.40024C5.72 2.25024 5.37 2.17024 5 2.17024ZM17 2.17024C16.63 2.17024 16.28 2.25024 15.96 2.40024C16 2.60024 16 2.80024 16 3.00024C16 4.15024 15.58 5.18024 14.91 6.03024C15.35 6.71024 16.12 7.17024 17 7.17024C17.3283 7.17024 17.6534 7.10558 17.9567 6.97994C18.26 6.85431 18.5356 6.67016 18.7678 6.43801C18.9999 6.20586 19.1841 5.93027 19.3097 5.62695C19.4353 5.32364 19.5 4.99855 19.5 4.67024C19.5 4.34194 19.4353 4.01685 19.3097 3.71354C19.1841 3.41022 18.9999 3.13462 18.7678 2.90248C18.5356 2.67033 18.26 2.48618 17.9567 2.36055C17.6534 2.23491 17.3283 2.17024 17 2.17024ZM11 8.00024C9 8.00024 5 9.00024 5 11.0002V13.0002H17V11.0002C17 9.00024 13 8.00024 11 8.00024ZM3.67 8.97024C2 9.26024 0 10.0402 0 11.3302V13.0002H3V11.0002C3 10.2202 3.29 9.53024 3.67 8.97024ZM18.33 8.97024C18.71 9.53024 19 10.2202 19 11.0002V13.0002H22V11.3302C22 10.0402 20 9.26024 18.33 8.97024Z" fill="white"/>
</svg>
