<svg width="19" height="19" viewBox="0 0 19 19" fill="none" xmlns="http://www.w3.org/2000/svg">
<path d="M7.75 0.75C6.77875 0.75 6 1.52875 6 2.5V5.125C6 6.09625 6.77875 6.875 7.75 6.875H8.625V8.625H0.75V10.375H4.25V12.125H3.375C2.40375 12.125 1.625 12.9038 1.625 13.875V16.5C1.625 17.4713 2.40375 18.25 3.375 18.25H6.875C7.84625 18.25 8.625 17.4713 8.625 16.5V13.875C8.625 12.9038 7.84625 12.125 6.875 12.125H6V10.375H13V12.125H12.125C11.1538 12.125 10.375 12.9038 10.375 13.875V16.5C10.375 17.4713 11.1538 18.25 12.125 18.25H15.625C16.5962 18.25 17.375 17.4713 17.375 16.5V13.875C17.375 12.9038 16.5962 12.125 15.625 12.125H14.75V10.375H18.25V8.625H10.375V6.875H11.25C12.2212 6.875 13 6.09625 13 5.125V2.5C13 1.52875 12.2212 0.75 11.25 0.75H7.75ZM7.75 2.5H11.25V5.125H7.75V2.5ZM3.375 13.875H6.875V16.5H3.375V13.875ZM12.125 13.875H15.625V16.5H12.125V13.875Z" fill="white"/>
</svg>
