<svg width="19" height="17" viewBox="0 0 19 17" fill="none" xmlns="http://www.w3.org/2000/svg">
<path d="M16.5 7.62524H2.5V5.00024H16.5V7.62524ZM16.5 11.1252H10.375V9.37524H16.5V11.1252ZM16.5 14.6252H10.375V12.8752H16.5V14.6252ZM8.625 14.6252H2.5V9.37524H8.625V14.6252ZM16.7887 2.08649L15.3363 0.625244L13.875 2.08649L12.4137 0.625244L10.9613 2.08649L9.5 0.625244L8.03875 2.08649L6.58625 0.625244L5.125 2.08649L3.66375 0.625244L2.21125 2.08649L0.75 0.625244V14.6252C0.75 15.0894 0.934374 15.5345 1.26256 15.8627C1.59075 16.1909 2.03587 16.3752 2.5 16.3752H16.5C16.9641 16.3752 17.4092 16.1909 17.7374 15.8627C18.0656 15.5345 18.25 15.0894 18.25 14.6252V0.625244L16.7887 2.08649Z" fill="white"/>
</svg>
