<svg width="17" height="19" viewBox="0 0 17 19" fill="none" xmlns="http://www.w3.org/2000/svg">
<path d="M12.875 7.75H4.125V6H12.875V7.75ZM12.875 11.25H4.125V9.5H12.875V11.25ZM10.25 14.75H4.125V13H10.25V14.75ZM8.5 2.5C8.73206 2.5 8.95462 2.59219 9.11872 2.75628C9.28281 2.92038 9.375 3.14294 9.375 3.375C9.375 3.60706 9.28281 3.82962 9.11872 3.99372C8.95462 4.15781 8.73206 4.25 8.5 4.25C8.26794 4.25 8.04538 4.15781 7.88128 3.99372C7.71719 3.82962 7.625 3.60706 7.625 3.375C7.625 3.14294 7.71719 2.92038 7.88128 2.75628C8.04538 2.59219 8.26794 2.5 8.5 2.5ZM14.625 2.5H10.9675C10.6 1.485 9.6375 0.75 8.5 0.75C7.3625 0.75 6.4 1.485 6.0325 2.5H2.375C1.91087 2.5 1.46575 2.68437 1.13756 3.01256C0.809374 3.34075 0.625 3.78587 0.625 4.25V16.5C0.625 16.9641 0.809374 17.4092 1.13756 17.7374C1.46575 18.0656 1.91087 18.25 2.375 18.25H14.625C15.0891 18.25 15.5342 18.0656 15.8624 17.7374C16.1906 17.4092 16.375 16.9641 16.375 16.5V4.25C16.375 3.78587 16.1906 3.34075 15.8624 3.01256C15.5342 2.68437 15.0891 2.5 14.625 2.5Z" fill="white"/>
</svg>
