<svg width="16" height="18" viewBox="0 0 16 18" fill="none" xmlns="http://www.w3.org/2000/svg">
<path d="M9.83421 11.8723C9.70132 12.2257 9.30703 12.4045 8.95378 12.2716C8.40889 12.0668 7.83433 11.9629 7.24609 11.9629H6.2207C3.54447 11.9629 1.36719 14.1402 1.36719 16.8164C1.36719 17.194 1.06114 17.5 0.683594 17.5C0.306045 17.5 0 17.194 0 16.8164C0 13.3863 2.7906 10.5957 6.2207 10.5957H7.24609C7.99921 10.5957 8.73564 10.729 9.43489 10.9919C9.78828 11.1248 9.96704 11.5189 9.83421 11.8723ZM11.2793 4.61426C11.2793 7.15856 9.20934 9.22852 6.66504 9.22852C4.12074 9.22852 2.05078 7.15856 2.05078 4.61426C2.05078 2.06996 4.12074 0 6.66504 0C9.20934 0 11.2793 2.06996 11.2793 4.61426ZM9.91211 4.61426C9.91211 2.82382 8.45547 1.36719 6.66504 1.36719C4.8746 1.36719 3.41797 2.82382 3.41797 4.61426C3.41797 6.40469 4.8746 7.86133 6.66504 7.86133C8.45547 7.86133 9.91211 6.40469 9.91211 4.61426ZM15.4492 14.5719C15.4492 13.504 14.4994 12.6351 13.332 12.6351C12.8357 12.6351 12.4756 12.3955 12.4756 12.0654C12.4756 11.7513 12.7286 11.4958 13.0396 11.4958C13.3531 11.4958 13.7615 11.5299 14.4134 11.7835C14.7652 11.9203 15.1614 11.746 15.2983 11.3941C15.4351 11.0423 15.2608 10.6461 14.9089 10.5093C14.5696 10.3773 14.2737 10.2908 14.0137 10.2338V9.70703C14.0137 9.32948 13.7076 9.02344 13.3301 9.02344C12.9525 9.02344 12.6465 9.32948 12.6465 9.70703V10.169C11.7695 10.3516 11.1084 11.1325 11.1084 12.0654C11.1084 13.1696 12.0643 14.0023 13.332 14.0023C13.7386 14.0023 14.082 14.2632 14.082 14.572C14.082 14.8754 13.7998 15.1416 13.4782 15.1416C13.2272 15.1416 12.5975 15.0496 11.9762 14.8026C11.6254 14.6632 11.2279 14.8345 11.0884 15.1853C10.9489 15.5362 11.1203 15.9336 11.4711 16.0731C11.867 16.2305 12.28 16.3427 12.6465 16.4139V16.8164C12.6465 17.194 12.9525 17.5 13.3301 17.5C13.7076 17.5 14.0137 17.194 14.0137 16.8164V16.4347C14.3262 16.3467 14.6151 16.1823 14.8558 15.9503C15.2385 15.5816 15.4492 15.092 15.4492 14.5719Z" fill="white"/>
</svg>
