<svg width="18" height="19" viewBox="0 0 18 19" fill="none" xmlns="http://www.w3.org/2000/svg">
<path d="M17.75 4.00518L13.725 0.627686L12.5963 1.96644L16.6213 5.34394L17.75 4.00518ZM5.395 1.96644L4.275 0.627686L0.25 3.99644L1.37875 5.33518L5.395 1.96644ZM9.4375 6.00018H8.125V11.2502L12.2812 13.7439L12.9375 12.6677L9.4375 10.5939V6.00018ZM9 2.50019C4.65125 2.50019 1.125 6.02644 1.125 10.3752C1.125 14.7239 4.6425 18.2502 9 18.2502C13.3488 18.2502 16.875 14.7239 16.875 10.3752C16.875 6.02644 13.3488 2.50019 9 2.50019ZM9 16.5002C5.61375 16.5002 2.875 13.7614 2.875 10.3752C2.875 6.98893 5.61375 4.25019 9 4.25019C12.3862 4.25019 15.125 6.98893 15.125 10.3752C15.125 13.7614 12.3862 16.5002 9 16.5002Z" fill="white"/>
</svg>
