<svg width="12" height="22" viewBox="0 0 12 22" fill="none" xmlns="http://www.w3.org/2000/svg">
<g opacity="0.3">
<path d="M3.86719 11.2716V22H7.73438V20.7109H10.3125V19.4219H9.02344V18.1328H10.3125V16.8438H9.02344V15.5547H10.3125V14.2656C10.0278 14.2656 8.12745 14.2656 7.73438 14.2656V11.2716C10.035 10.4613 11.6016 8.27913 11.6016 5.80078C11.6016 2.60223 8.99933 0 5.80078 0C2.60223 0 0 2.60223 0 5.80078C0 8.27913 1.5666 10.4613 3.86719 11.2716ZM5.80078 1.28906C8.28854 1.28906 10.3125 3.31302 10.3125 5.80078C10.3125 9.63866 6.45227 10.2905 6.44531 10.2949V15.5547H7.73438V16.8438H6.44531V18.1328H7.73438V19.4219H6.44531V20.7109H5.15625V10.2949C5.14478 10.2877 1.28906 9.64373 1.28906 5.80078C1.28906 3.31302 3.31302 1.28906 5.80078 1.28906Z" fill="#495057"/>
<path d="M5.80078 9.02344C7.57775 9.02344 9.02344 7.57775 9.02344 5.80078C9.02344 4.02381 7.57775 2.57812 5.80078 2.57812C4.02381 2.57812 2.57812 4.02381 2.57812 5.80078C2.57812 7.57775 4.02381 9.02344 5.80078 9.02344ZM5.80078 3.86719C6.86696 3.86719 7.73438 4.7346 7.73438 5.80078C7.73438 6.86696 6.86696 7.73438 5.80078 7.73438C4.7346 7.73438 3.86719 6.86696 3.86719 5.80078C3.86719 4.7346 4.7346 3.86719 5.80078 3.86719Z" fill="#495057"/>
</g>
</svg>
