<svg width="18" height="21" viewBox="0 0 18 21" fill="none" xmlns="http://www.w3.org/2000/svg">
<g opacity="0.3">
<path d="M8.62789 10.1158C10.0176 10.1158 11.2208 9.61735 12.2043 8.63394C13.1874 7.65068 13.6859 6.44761 13.6859 5.05773C13.6859 3.66833 13.1875 2.4651 12.2041 1.48153C11.2207 0.498435 10.0175 0 8.62789 0C7.238 0 6.03493 0.498435 5.05167 1.48169C4.06842 2.46494 3.56982 3.66817 3.56982 5.05773C3.56982 6.44761 4.06842 7.65085 5.05167 8.6341C6.03525 9.61719 7.23848 10.1158 8.62789 10.1158ZM5.92198 2.35183C6.67644 1.59736 7.56148 1.23063 8.62789 1.23063C9.69413 1.23063 10.5793 1.59736 11.334 2.35183C12.0884 3.10645 12.4553 3.99165 12.4553 5.05773C12.4553 6.12414 12.0884 7.00918 11.334 7.7638C10.5793 8.51842 9.69413 8.88516 8.62789 8.88516C7.5618 8.88516 6.67676 8.51826 5.92198 7.7638C5.16735 7.00934 4.80045 6.12414 4.80045 5.05773C4.80045 3.99165 5.16735 3.10645 5.92198 2.35183Z" fill="#495057"/>
<path d="M17.478 16.1479C17.4496 15.7387 17.3922 15.2924 17.3078 14.821C17.2226 14.3461 17.1128 13.8972 16.9814 13.4869C16.8456 13.0628 16.6612 12.644 16.4329 12.2426C16.1962 11.8261 15.9181 11.4633 15.606 11.1649C15.2796 10.8526 14.88 10.6015 14.418 10.4184C13.9575 10.2362 13.4472 10.144 12.9013 10.144C12.687 10.144 12.4797 10.2319 12.0793 10.4926C11.8329 10.6533 11.5446 10.8391 11.2229 11.0447C10.9478 11.22 10.5751 11.3842 10.1148 11.5329C9.66575 11.6782 9.20977 11.7519 8.75956 11.7519C8.30967 11.7519 7.8537 11.6782 7.40429 11.5329C6.94446 11.3844 6.57164 11.2201 6.29702 11.0449C5.97835 10.8412 5.68996 10.6554 5.43986 10.4924C5.0398 10.2318 4.83248 10.1438 4.61811 10.1438C4.07208 10.1438 3.56195 10.2362 3.10165 10.4186C2.6399 10.6014 2.24016 10.8524 1.91348 11.165C1.60137 11.4637 1.32324 11.8262 1.08675 12.2426C0.858765 12.644 0.674195 13.0626 0.53833 13.487C0.407112 13.8974 0.297363 14.3461 0.212128 14.821C0.127533 15.2917 0.0703354 15.7383 0.041977 16.1484C0.0140991 16.5494 0 16.9668 0 17.3885C0 18.4847 0.348473 19.3721 1.03565 20.0266C1.71433 20.6725 2.61218 20.9999 3.70439 20.9999H13.816C14.9079 20.9999 15.8058 20.6725 16.4846 20.0266C17.1719 19.3726 17.5204 18.4849 17.5204 17.3883C17.5203 16.9652 17.506 16.5478 17.478 16.1479ZM15.6361 19.135C15.1876 19.5618 14.5923 19.7693 13.8159 19.7693H3.70439C2.92781 19.7693 2.33244 19.5618 1.88416 19.1352C1.44436 18.7165 1.23063 18.145 1.23063 17.3885C1.23063 16.995 1.24361 16.6065 1.26956 16.2335C1.29488 15.8676 1.34663 15.4656 1.42337 15.0384C1.49915 14.6166 1.5956 14.2207 1.71032 13.8623C1.82039 13.5186 1.97051 13.1783 2.15669 12.8505C2.33437 12.5381 2.5388 12.27 2.76439 12.0541C2.9754 11.852 3.24136 11.6867 3.55474 11.5627C3.84458 11.448 4.1703 11.3852 4.5239 11.3757C4.567 11.3986 4.64374 11.4424 4.76807 11.5234C5.02105 11.6883 5.31265 11.8764 5.635 12.0823C5.99838 12.3139 6.46653 12.5232 7.02585 12.7037C7.59767 12.8886 8.18086 12.9825 8.75972 12.9825C9.33859 12.9825 9.92194 12.8886 10.4934 12.7039C11.0532 12.523 11.5212 12.3139 11.8851 12.0819C12.215 11.8711 12.4984 11.6885 12.7514 11.5234C12.8757 11.4425 12.9525 11.3986 12.9956 11.3757C13.3493 11.3852 13.675 11.448 13.965 11.5627C14.2783 11.6867 14.5442 11.8522 14.7552 12.0541C14.9808 12.2699 15.1852 12.5379 15.3629 12.8507C15.5493 13.1783 15.6995 13.5188 15.8094 13.8621C15.9243 14.221 16.0209 14.6167 16.0966 15.0383C16.1731 15.4662 16.2251 15.8684 16.2504 16.2336V16.234C16.2765 16.6055 16.2896 16.9939 16.2898 17.3885C16.2896 18.1452 16.0759 18.7165 15.6361 19.135Z" fill="#495057"/>
</g>
</svg>
